# Blender 4.1.1
# www.blender.org
mtllib caixa.mtl
o BaixoForm
v 1.014121 -0.500000 1.500000
v -1.014121 -0.500000 1.500000
v 1.014121 -0.500000 -1.500000
v -1.014121 -0.500000 -1.500000
vn -0.0000 -1.0000 -0.0000
vt 0.000000 0.000000
vt 1.000000 0.000000
vt 1.000000 1.000000
vt 0.000000 1.000000
s 0
usemtl BaixoForm
f 1/1/1 2/2/1 4/3/1 3/4/1
o Lado1Form
v -1.008373 -0.500000 1.500000
v 1.008373 -0.500000 1.500000
v -1.008373 0.500000 1.500000
v 1.008373 0.500000 1.500000
vn -0.0000 -0.0000 1.0000
vt 0.000000 0.000000
vt 1.000000 0.000000
vt 1.000000 1.000000
vt 0.000000 1.000000
s 0
usemtl Lado1Form
f 5/5/2 6/6/2 8/7/2 7/8/2
o Lado1Form_-_Copia
v 1.008373 -0.500000 -1.500000
v -1.008373 -0.500000 -1.500000
v 1.008373 0.500000 -1.500000
v -1.008373 0.500000 -1.500000
vn -0.0000 -0.0000 -1.0000
vt 0.000000 0.000000
vt 1.000000 0.000000
vt 1.000000 1.000000
vt 0.000000 1.000000
s 0
usemtl Lado1Form_-_Copia
f 9/9/3 10/10/3 12/11/3 11/12/3
o LadoForm
v 1.000000 -0.500000 1.505239
v 1.000000 -0.500000 -1.505239
v 1.000000 0.500000 1.505239
v 1.000000 0.500000 -1.505239
vn 1.0000 -0.0000 -0.0000
vt 0.000000 0.000000
vt 1.000000 0.000000
vt 1.000000 1.000000
vt 0.000000 1.000000
s 0
usemtl LadoForm
f 13/13/4 14/14/4 16/15/4 15/16/4
o LadoForm_-_Copia
v -1.000000 -0.500000 -1.505239
v -1.000000 -0.500000 1.505239
v -1.000000 0.500000 -1.505239
v -1.000000 0.500000 1.505239
vn -1.0000 -0.0000 -0.0000
vt 0.000000 0.000000
vt 1.000000 0.000000
vt 1.000000 1.000000
vt 0.000000 1.000000
s 0
usemtl LadoForm_-_Copia
f 17/17/5 18/18/5 20/19/5 19/20/5
o TopoForm
v -1.007812 0.500000 1.500000
v 1.007812 0.500000 1.500000
v -1.007812 0.500000 -1.500000
v 1.007812 0.500000 -1.500000
vn -0.0000 1.0000 -0.0000
vt 0.000000 0.000000
vt 1.000000 0.000000
vt 1.000000 1.000000
vt 0.000000 1.000000
s 0
usemtl TopoForm
f 21/21/6 22/22/6 24/23/6 23/24/6
